<svg width="128" height="128" viewBox="0 0 128 128" fill="none" xmlns="http://www.w3.org/2000/svg">
<rect width="128" height="128" rx="20" fill="#CF5D54"/>
<path d="M33.6647 26.466C33.1058 26.7189 32.5714 27.0227 32.0683 27.3735L29.7194 29.0112C29.0592 29.4715 28.457 30.0098 27.9258 30.6144L25.4507 33.432C25.398 33.5974 25.3333 33.7587 25.2569 33.9147L22.2662 40.0178L18.6639 46.6036L16.5878 50.3419C16.3161 50.831 16.086 51.3422 15.8998 51.8698L14.9052 54.6887C14.7618 55.0953 14.6774 55.5204 14.6548 55.951L14.6065 56.8683C14.5796 57.38 14.7415 57.8838 15.0616 58.284C15.4072 58.6789 15.9064 58.9053 16.4311 58.9053H35.1942C35.3532 58.9053 35.5121 58.8922 35.669 58.866C36.006 58.8098 36.3303 58.6943 36.627 58.5247L38.7871 57.2899L42.6378 54.929L48.7244 50.2071L53.5689 46.355L58.6618 41.6331L69.7171 32.8107C73.6515 30.2607 73.3695 24.4135 69.2079 22.2541L68.7234 22.0027L57.4196 22.1243L49.5939 22.497L43.0104 23.4911L39.162 24.2611C38.4176 24.41 37.6926 24.6432 37.0009 24.9562L33.6647 26.466Z" fill="#4D1B17"/>
<path d="M5.22173 85H33.6546C34.177 85 34.6987 84.9591 35.2147 84.8775L39.1597 84.2544L53.9415 79.9053L67.4812 74.8107L78.5365 69.4675L86.8 66.0507C87.4996 65.7614 88.2298 65.5525 88.9765 65.428L89.8011 65.2906C90.4879 65.1761 91.1847 65.1336 91.8802 65.1638L92.6344 65.1966C93.3368 65.2272 94.0341 65.3318 94.7147 65.5086L103.256 67.7278L124 74.8107V64.1243L103.256 53.0651L97.8531 50.9695C97.3977 50.7928 96.93 50.6498 96.4537 50.5415L95.5308 50.3317C94.8034 50.1663 94.0598 50.0828 93.3139 50.0828H92.6973L91.7763 50.1912C90.9859 50.2842 90.2113 50.4811 89.4725 50.7768C88.9734 50.9765 88.4931 51.2203 88.0372 51.5053L80.7724 56.0473L73.3194 62.0118L66.239 67.8521L60.4008 71.8284L54.5626 74.9349L48.2276 77.6686L42.762 79.9053L38.4144 81.2722L36.0954 81.935C35.3255 82.1551 34.5319 82.2818 33.7317 82.3126L31.7067 82.3905H29.0981H5.56304L5.22173 85Z" fill="#4D1B17"/>
<path fill-rule="evenodd" clip-rule="evenodd" d="M14.4405 50.2071L11.9562 55.9231L10.0929 61.9694C10.5017 62.3244 10.8247 62.7674 11.038 63.2651L11.0866 63.3787L11.4593 64.6213L11.7077 66.1124L11.7315 66.279C11.7984 66.7472 11.8319 67.2197 11.8319 67.6927V67.7278V68.7219V68.8707C11.8319 69.1828 11.7724 69.4921 11.6565 69.7819C11.6079 69.9034 11.5497 70.0209 11.4824 70.1331L10.8382 71.2071L10.7352 71.4133C10.6408 71.6021 10.4877 71.7552 10.2989 71.8496C10.1634 71.9174 10.014 71.9527 9.86253 71.9527H9.62943C9.52475 71.9527 9.42047 71.9398 9.31892 71.9144C9.09384 71.8581 8.8883 71.7417 8.72428 71.5776L8.6023 71.4556L7.98121 70.7101L7.57376 70.1441L7.11251 71.6409C6.94664 72.1791 6.82654 72.7304 6.75349 73.2889L5.56304 82.3905H29.0981H31.7067L33.7317 82.3126C34.5319 82.2818 35.3255 82.1551 36.0954 81.935L38.4144 81.2722L42.762 79.9053L48.2276 77.6686L54.5626 74.9349L60.4008 71.8284L66.239 67.8521L73.3194 62.0118L80.7724 56.0473L88.0372 51.5053C88.4931 51.2203 88.9734 50.9765 89.4725 50.7768C90.2113 50.4811 90.9859 50.2842 91.7763 50.1912L92.6973 50.0828H93.3139C94.0598 50.0828 94.8034 50.1663 95.5308 50.3317L96.4537 50.5415C96.93 50.6498 97.3977 50.7928 97.8531 50.9695L103.256 53.0651L124 64.1243V58.5325C124 55.5609 122.597 52.7636 120.216 50.9859L107.355 41.3846L94.1879 32.0651L86.3195 26.8926C85.7696 26.5312 85.1854 26.2249 84.5754 25.9782L79.6545 23.9882L74.7964 22.5144C73.9429 22.2555 73.0586 22.1119 72.1671 22.0875L68.9718 22L68.7234 22.0027L69.2079 22.2541C73.3695 24.4135 73.6515 30.2607 69.7171 32.8107L58.6618 41.6331L53.5689 46.355L48.7244 50.2071L42.6378 54.929L38.7871 57.2899L36.627 58.5247C36.3303 58.6943 36.006 58.8098 35.669 58.866C35.5121 58.8922 35.3532 58.9053 35.1942 58.9053H16.4311C15.9064 58.9053 15.4072 58.6789 15.0616 58.284C14.7415 57.8838 14.5796 57.38 14.6065 56.8683L14.6548 55.951C14.6774 55.5204 14.7618 55.0953 14.9052 54.6887L15.8998 51.8698C16.086 51.3422 16.3161 50.831 16.5878 50.3419L18.6639 46.6036L22.2662 40.0178L25.2569 33.9147C25.3333 33.7587 25.398 33.5974 25.4507 33.432L25.1232 33.8047L21.1079 38.5813C20.7215 39.041 20.3773 39.5345 20.0795 40.0559L19.0365 41.8817L16.1795 46.6036L14.4405 50.2071ZM38.6352 72.3945C38.49 72.1039 38.4144 71.7836 38.4144 71.4588V69.3927C38.4144 69.0307 38.4727 68.6711 38.5872 68.3277C38.6376 68.1765 38.6986 68.029 38.7699 67.8865L38.958 67.51C39.175 67.076 39.4256 66.6596 39.7075 66.2647L39.905 65.9882L40.6503 64.9941C40.9808 64.4983 41.3594 64.0363 41.7806 63.6149L41.8617 63.5338C42.3775 63.0177 42.9483 62.5597 43.5639 62.1679L44.0042 61.8876L44.9979 61.3905C45.9787 60.9817 47.0439 60.7265 48.1033 60.645H48.1872C48.7076 60.645 49.2245 60.7289 49.7182 60.8935C50.1316 61.0589 50.5311 61.2571 50.9128 61.4863L50.9603 61.5148C51.2871 61.7599 51.5523 62.0778 51.7349 62.4432L51.7964 62.5662C51.9012 62.7759 51.9827 62.9964 52.0396 63.2238L52.0804 63.3873C52.1615 63.7117 52.2025 64.0448 52.2025 64.3792C52.2025 64.7868 52.1416 65.1922 52.0217 65.5818L51.7056 66.6095L51.3679 67.4299C51.0151 68.2871 50.5448 69.091 49.9706 69.8187L49.6814 70.185C49.2106 70.7816 48.6733 71.3226 48.0798 71.7975L47.7307 72.0769C47.072 72.6535 46.3301 73.1276 45.5302 73.4833L45.4182 73.5331C44.8086 73.8041 44.171 74.0069 43.5169 74.1377L43.1455 74.212C42.8079 74.2796 42.4643 74.3136 42.12 74.3136H41.7401C41.4296 74.3136 41.1213 74.2636 40.8268 74.1654C40.6269 74.0987 40.435 74.0104 40.2543 73.902L39.905 73.6923L39.2839 73.1953L39.0271 72.9384C38.8681 72.7793 38.7358 72.5957 38.6352 72.3945Z" fill="#CF5D54"/>
<path d="M5.12422 85.7456L5 86.3669L124 88.2308V74.8107L103.256 67.7278L94.7147 65.5086C94.0341 65.3318 93.3368 65.2272 92.6344 65.1966L91.8802 65.1638C91.1847 65.1336 90.4879 65.1761 89.8011 65.2906L88.9765 65.428C88.2298 65.5525 87.4996 65.7614 86.8 66.0507L78.5365 69.4675L67.4812 74.8107L53.9415 79.9053L39.1597 84.2544L35.2147 84.8775C34.6987 84.9591 34.177 85 33.6546 85H5.22173L5.12422 85.7456Z" fill="#CF5D54"/>
<path d="M38.5872 68.3277C38.4727 68.6711 38.4144 69.0307 38.4144 69.3927V71.4588C38.4144 71.7836 38.49 72.1039 38.6352 72.3945C38.7358 72.5957 38.8681 72.7793 39.0271 72.9384L39.2839 73.1953L39.905 73.6923L40.2543 73.902C40.435 74.0104 40.6269 74.0987 40.8268 74.1654C41.1213 74.2636 41.4296 74.3136 41.7401 74.3136H42.12C42.4643 74.3136 42.8079 74.2796 43.1455 74.212L43.5169 74.1377C44.171 74.0069 44.8086 73.8041 45.4182 73.5331L45.5302 73.4833C46.3301 73.1276 47.072 72.6535 47.7307 72.0769L48.0798 71.7975C48.6733 71.3226 49.2106 70.7816 49.6814 70.185L49.9706 69.8187C50.5448 69.091 51.0151 68.2871 51.3679 67.4299L51.7056 66.6095L52.0217 65.5818C52.1416 65.1922 52.2025 64.7868 52.2025 64.3792C52.2025 64.0448 52.1615 63.7117 52.0804 63.3873L52.0396 63.2238C51.9827 62.9964 51.9012 62.7759 51.7964 62.5662L51.7349 62.4432C51.5523 62.0778 51.2871 61.7599 50.9603 61.5148L50.9128 61.4863C50.5311 61.2571 50.1316 61.0589 49.7182 60.8935C49.2245 60.7289 48.7076 60.645 48.1872 60.645H48.1033C47.0439 60.7265 45.9787 60.9817 44.9979 61.3905L44.0042 61.8876L43.5639 62.1679C42.9483 62.5597 42.3775 63.0177 41.8617 63.5338L41.7806 63.6149C41.3594 64.0363 40.9808 64.4983 40.6503 64.9941L39.905 65.9882L39.7075 66.2647C39.4256 66.6596 39.175 67.076 38.958 67.51L38.7699 67.8865C38.6986 68.029 38.6376 68.1765 38.5872 68.3277Z" fill="#4D1B17"/>
<path d="M11.038 63.2651C10.8247 62.7674 10.5017 62.3244 10.0929 61.9694L7.57376 70.1441L7.98121 70.7101L8.6023 71.4556L8.72428 71.5776C8.8883 71.7417 9.09384 71.8581 9.31892 71.9144C9.42047 71.9398 9.52475 71.9527 9.62943 71.9527H9.86253C10.014 71.9527 10.1634 71.9174 10.2989 71.8496C10.4877 71.7552 10.6408 71.6021 10.7352 71.4133L10.8382 71.2071L11.4824 70.1331C11.5497 70.0209 11.6079 69.9034 11.6565 69.7819C11.7724 69.4921 11.8319 69.1828 11.8319 68.8707V68.7219V67.7278V67.6927C11.8319 67.2197 11.7984 66.7472 11.7315 66.279L11.7077 66.1124L11.4593 64.6213L11.0866 63.3787L11.038 63.2651Z" fill="#4D1B17"/>
<path d="M80.2756 99.9112L120.045 95.7294C122.293 95.4931 124 93.5976 124 91.3373L58.4134 93.574L12.4689 94.565L13.9436 95.9349C14.5838 96.6553 14.9374 97.5856 14.9374 98.5493V98.7929V98.9172C14.9374 99.3205 14.8066 99.7129 14.5647 100.036L13.571 101.278L13.2584 101.695C13.2184 101.748 13.1747 101.799 13.1275 101.846L13.028 101.946C12.8961 102.078 12.8062 102.246 12.7696 102.429C12.7256 102.648 12.7612 102.877 12.8701 103.073L13.3225 103.888C13.4865 104.134 13.6976 104.345 13.9436 104.509L14.8132 105.006L15.6827 105.379L16.162 105.523C16.6698 105.675 17.1888 105.787 17.7143 105.857L17.8184 105.871C18.4633 105.957 19.1151 105.98 19.7645 105.939L26.738 105.503L80.2756 99.9112Z" fill="#CF5D54"/>
<path d="M10.4745 93.7648C10.7164 93.8858 10.9696 93.9826 11.2305 94.0538L11.8566 94.2246C12.0852 94.2869 12.2953 94.4038 12.4689 94.565L58.4134 93.574L124 91.3373V88.2308L5 86.3669C5.08191 87.0224 5.29972 87.6536 5.63951 88.2201L6.24217 89.2249L7.48434 91.0888L8.47808 92.2071L8.61785 92.3669C9.09973 92.9178 9.68431 93.3696 10.3389 93.697L10.4745 93.7648Z" fill="#4D1B17"/>
<path d="M5 86.3669L5.12422 85.7456L5.22173 85M5 86.3669L124 88.2308M5 86.3669C5.08191 87.0224 5.29972 87.6536 5.63951 88.2201L6.24217 89.2249L7.48434 91.0888L8.47808 92.2071L8.61785 92.3669C9.09973 92.9178 9.68431 93.3696 10.3389 93.697L10.4745 93.7648C10.7164 93.8858 10.9696 93.9826 11.2305 94.0538L11.8566 94.2246C12.0852 94.2869 12.2953 94.4038 12.4689 94.565M10.0929 61.9694L11.9562 55.9231L14.4405 50.2071L16.1795 46.6036L19.0365 41.8817L20.0795 40.0559C20.3773 39.5345 20.7215 39.041 21.1079 38.5813L25.1232 33.8047L25.4507 33.432M10.0929 61.9694L7.57376 70.1441M10.0929 61.9694C10.5017 62.3244 10.8247 62.7674 11.038 63.2651L11.0866 63.3787L11.4593 64.6213L11.7077 66.1124L11.7315 66.279C11.7984 66.7472 11.8319 67.2197 11.8319 67.6927V67.7278V68.7219V68.8707C11.8319 69.1828 11.7724 69.4921 11.6565 69.7819C11.6079 69.9034 11.5497 70.0209 11.4824 70.1331L10.8382 71.2071L10.7352 71.4133C10.6408 71.6021 10.4877 71.7552 10.2989 71.8496C10.1634 71.9174 10.014 71.9527 9.86253 71.9527H9.62943C9.52475 71.9527 9.42047 71.9398 9.31892 71.9144C9.09384 71.8581 8.8883 71.7417 8.72428 71.5776L8.6023 71.4556L7.98121 70.7101L7.57376 70.1441M7.57376 70.1441L7.11251 71.6409C6.94664 72.1791 6.82654 72.7304 6.75349 73.2889L5.56304 82.3905M68.7234 22.0027L57.4196 22.1243L49.5939 22.497L43.0104 23.4911L39.162 24.2611C38.4176 24.41 37.6926 24.6432 37.0009 24.9562L33.6647 26.466C33.1058 26.7189 32.5714 27.0227 32.0683 27.3735L29.7194 29.0112C29.0592 29.4715 28.457 30.0098 27.9258 30.6144L25.4507 33.432M68.7234 22.0027L68.9718 22L72.1671 22.0875C73.0586 22.1119 73.9429 22.2555 74.7964 22.5144L79.6545 23.9882L84.5754 25.9782C85.1854 26.2249 85.7696 26.5312 86.3195 26.8926L94.1879 32.0651L107.355 41.3846L120.216 50.9859C122.597 52.7636 124 55.5609 124 58.5325V64.1243M68.7234 22.0027L69.2079 22.2541C73.3695 24.4135 73.6515 30.2607 69.7171 32.8107L58.6618 41.6331L53.5689 46.355L48.7244 50.2071L42.6378 54.929L38.7871 57.2899L36.627 58.5247C36.3303 58.6943 36.006 58.8098 35.669 58.866C35.5121 58.8922 35.3532 58.9053 35.1942 58.9053H16.4311C15.9064 58.9053 15.4072 58.6789 15.0616 58.284C14.7415 57.8838 14.5796 57.38 14.6065 56.8683L14.6548 55.951C14.6774 55.5204 14.7618 55.0953 14.9052 54.6887L15.8998 51.8698C16.086 51.3422 16.3161 50.831 16.5878 50.3419L18.6639 46.6036L22.2662 40.0178L25.2569 33.9147C25.3333 33.7587 25.398 33.5974 25.4507 33.432M5.22173 85H33.6546C34.177 85 34.6987 84.9591 35.2147 84.8775L39.1597 84.2544L53.9415 79.9053L67.4812 74.8107L78.5365 69.4675L86.8 66.0507C87.4996 65.7614 88.2298 65.5525 88.9765 65.428L89.8011 65.2906C90.4879 65.1761 91.1847 65.1336 91.8802 65.1638L92.6344 65.1966C93.3368 65.2272 94.0341 65.3318 94.7147 65.5086L103.256 67.7278L124 74.8107M5.22173 85L5.56304 82.3905M124 74.8107V64.1243M124 74.8107V88.2308M124 64.1243L103.256 53.0651L97.8531 50.9695C97.3977 50.7928 96.93 50.6498 96.4537 50.5415L95.5308 50.3317C94.8034 50.1663 94.0598 50.0828 93.3139 50.0828H92.6973L91.7763 50.1912C90.9859 50.2842 90.2113 50.4811 89.4725 50.7768C88.9734 50.9765 88.4931 51.2203 88.0372 51.5053L80.7724 56.0473L73.3194 62.0118L66.239 67.8521L60.4008 71.8284L54.5626 74.9349L48.2276 77.6686L42.762 79.9053L38.4144 81.2722L36.0954 81.935C35.3255 82.1551 34.5319 82.2818 33.7317 82.3126L31.7067 82.3905H29.0981H5.56304M124 88.2308V91.3373M12.3288 94.568L12.4689 94.565M124 91.3373L58.4134 93.574L12.4689 94.565M124 91.3373C124 93.5976 122.293 95.4931 120.045 95.7294L80.2756 99.9112L26.738 105.503L19.7645 105.939C19.1151 105.98 18.4633 105.957 17.8184 105.871L17.7143 105.857C17.1888 105.787 16.6698 105.675 16.162 105.523L15.6827 105.379L14.8132 105.006L13.9436 104.509C13.6976 104.345 13.4865 104.134 13.3225 103.888L12.8701 103.073C12.7612 102.877 12.7256 102.648 12.7696 102.429C12.8062 102.246 12.8961 102.078 13.028 101.946L13.1275 101.846C13.1747 101.799 13.2184 101.748 13.2584 101.695L13.571 101.278L14.5647 100.036C14.8066 99.7129 14.9374 99.3205 14.9374 98.9172V98.7929V98.5493C14.9374 97.5856 14.5838 96.6553 13.9436 95.9349L12.4689 94.565M39.2839 73.1953L39.0271 72.9384C38.8681 72.7793 38.7358 72.5957 38.6352 72.3945C38.49 72.1039 38.4144 71.7836 38.4144 71.4588V69.3927C38.4144 69.0307 38.4727 68.6711 38.5872 68.3277C38.6376 68.1765 38.6986 68.029 38.7699 67.8865L38.958 67.51C39.175 67.076 39.4256 66.6596 39.7075 66.2647L39.905 65.9882L40.6503 64.9941C40.9808 64.4983 41.3594 64.0363 41.7806 63.6149L41.8617 63.5338C42.3775 63.0177 42.9483 62.5597 43.5639 62.1679L44.0042 61.8876L44.9979 61.3905C45.9787 60.9817 47.0439 60.7265 48.1033 60.645H48.1872C48.7076 60.645 49.2245 60.7289 49.7182 60.8935C50.1316 61.0589 50.5311 61.2571 50.9128 61.4863L50.9603 61.5148C51.2871 61.7599 51.5523 62.0778 51.7349 62.4432L51.7964 62.5662C51.9012 62.7759 51.9827 62.9964 52.0396 63.2238L52.0804 63.3873C52.1615 63.7117 52.2025 64.0448 52.2025 64.3792C52.2025 64.7868 52.1416 65.1922 52.0217 65.5818L51.7056 66.6095L51.3679 67.4299C51.0151 68.2871 50.5448 69.091 49.9706 69.8187L49.6814 70.185C49.2106 70.7816 48.6733 71.3226 48.0798 71.7975L47.7307 72.0769C47.072 72.6535 46.3301 73.1276 45.5302 73.4833L45.4182 73.5331C44.8086 73.8041 44.171 74.0069 43.5169 74.1377L43.1455 74.212C42.8079 74.2796 42.4643 74.3136 42.12 74.3136H41.7401C41.4296 74.3136 41.1213 74.2636 40.8268 74.1654C40.6269 74.0987 40.435 74.0104 40.2543 73.902L39.905 73.6923L39.2839 73.1953Z" stroke="#4D1B17" stroke-width="2"/>
<path d="M13.5 55L13.5736 54.8037M13.5736 54.8037L15 51L19 52L14 54.5L13.5736 54.8037ZM15.5 50L19.5 43L23 48L15.5 50Z" stroke="#4D1B17"/>
<path d="M106.84 117.274C108.768 117.208 110.602 116.422 111.979 115.071L112.67 114.393C114.567 112.532 115.596 109.959 115.506 107.302L115.501 107.154C115.474 106.372 115.339 105.597 115.099 104.852C114.605 103.323 113.685 101.967 112.446 100.944L104.324 94.2368C102.264 92.5357 101.349 89.8124 101.964 87.2128C102.168 86.3526 102.207 85.4616 102.08 84.5869L101.691 81.9154C101.216 78.6556 99.9434 75.5636 97.9861 72.914L96.9573 71.5213C95.7915 69.9432 94.3999 68.5452 92.8271 67.3723L91.0766 66.0668C90.4042 65.5653 89.6909 65.1211 88.9443 64.7389L88.5995 64.5624C86.5562 63.5164 84.2801 63.0083 81.986 63.0862L75.5982 63.3032C74.5476 63.3388 73.5283 63.669 72.6563 64.2561L70.7607 65.5323C70.3358 65.8183 70.0883 66.303 70.1057 66.8149C70.1203 67.2445 70.3203 67.6468 70.6541 67.9177L79.8203 75.3573C81.1805 76.4613 81.9956 78.1004 82.0551 79.8512C82.0829 80.6704 81.944 81.4867 81.6469 82.2506L81.3479 83.0195C80.9377 84.0741 80.2056 84.9726 79.2556 85.5874C78.6057 86.008 77.8727 86.2835 77.1067 86.395L75.8386 86.5797C74.5006 86.7745 73.1349 86.5785 71.9057 86.0152C71.1347 85.6619 70.4342 85.1717 69.8381 84.5684L64.5225 79.1882L62.9528 77.9327C61.8072 77.0163 60.1493 77.1365 59.1478 78.2084C58.7331 78.6522 58.4736 79.2186 58.4081 79.8225L58.0057 83.5358C57.8346 85.1152 57.9332 86.7121 58.2975 88.2584L58.5259 89.2283C58.7854 90.33 59.1587 91.4017 59.6396 92.4263C60.2335 93.6918 60.9873 94.8758 61.8825 95.9495L63.009 97.3006C63.7913 98.2389 64.6579 99.1035 65.5979 99.8836L67.1218 101.148C68.2492 102.084 69.4761 102.893 70.7802 103.56L71.0537 103.7C72.6114 104.498 74.267 105.087 75.9782 105.454L77.432 105.765L78.1064 105.838C79.9905 106.043 81.8941 105.978 83.76 105.646L84.4279 105.528L87.6515 104.487C87.811 104.436 87.977 104.407 88.1445 104.401C88.6227 104.385 89.0878 104.559 89.4375 104.886L94.5749 109.686L97.6934 112.963C98.3804 113.685 99.1204 114.355 99.9072 114.966L101.227 115.992C101.613 116.292 102.033 116.547 102.478 116.751C103.375 117.162 104.354 117.358 105.339 117.325L106.84 117.274Z" fill="#CF5D54" stroke="#4D1B17" stroke-width="3"/>
</svg>
