<svg width="128" height="128" viewBox="0 0 128 128" fill="none" xmlns="http://www.w3.org/2000/svg">
<rect width="128" height="128" rx="20" fill="#CF5D54"/>
<path d="M32.8246 26.8462L28.7255 29.7041L25.4507 33.432L25.3716 33.6805L22.2662 40.0178L18.6639 46.6036L16.1795 51.0769L14.6889 55.3018L14.5647 57.6627L15.0616 58.284L15.6054 58.9053H35.4332L36.1785 58.7811L38.7871 57.2899L42.6378 54.929L48.7244 50.2071L53.5689 46.355L58.6618 41.6331L69.7171 32.8107L78.5365 27.0947L68.7234 22.0027L57.4196 22.1243L49.5939 22.497L43.0104 23.4911L38.0418 24.4852L32.8246 26.8462Z" fill="#4D1B17"/>
<path d="M5.22173 85H34.4395L39.1597 84.2544L53.9415 79.9053L67.4812 74.8107L78.5365 69.4675L87.8528 65.6154L90.834 65.1183L93.691 65.2426L103.256 67.7278L124 74.8107V64.1243L103.256 53.0651L97.1691 50.7041L94.4363 50.0828H92.6973L90.5856 50.3314L88.7223 51.0769L80.7724 56.0473L73.3194 62.0118L66.239 67.8521L60.4008 71.8284L54.5626 74.9349L48.2276 77.6686L42.762 79.9053L38.4144 81.2722L34.9363 82.2663L31.7067 82.3905H29.0981H5.56304L5.22173 85Z" fill="#4D1B17"/>
<path fill-rule="evenodd" clip-rule="evenodd" d="M14.4405 50.2071L11.9562 55.9231L10.0929 61.9694L10.714 62.5089L11.0866 63.3787L11.4593 64.6213L11.7077 66.1124L11.8319 66.9823V67.7278V68.7219V69.3432L11.5835 69.9645L10.8382 71.2071L10.5898 71.7041L10.0929 71.9527H9.47182L8.97495 71.8284L8.6023 71.4556L7.98121 70.7101L7.57376 70.1441L6.86326 72.4497L5.56304 82.3905H29.0981H31.7067L34.9363 82.2663L38.4144 81.2722L42.762 79.9053L48.2276 77.6686L54.5626 74.9349L60.4008 71.8284L66.239 67.8521L73.3194 62.0118L80.7724 56.0473L88.7223 51.0769L90.5856 50.3314L92.6973 50.0828H94.4363L97.1691 50.7041L103.256 53.0651L124 64.1243V58.5325V53.8107L107.355 41.3846L94.1879 32.0651L85.4927 26.3491L79.6545 23.9882L73.5104 22.1243L68.9718 22L68.7234 22.0027L78.5365 27.0947L69.7171 32.8107L58.6618 41.6331L53.5689 46.355L48.7244 50.2071L42.6378 54.929L38.7871 57.2899L36.1785 58.7811L35.4332 58.9053H15.6054L15.0616 58.284L14.5647 57.6627L14.6889 55.3018L16.1795 51.0769L18.6639 46.6036L22.2662 40.0178L25.3716 33.6805L25.4507 33.432L25.1232 33.8047L20.5271 39.2722L19.0365 41.8817L16.1795 46.6036L14.4405 50.2071ZM38.4144 71.9527V68.8462L38.6628 68.1006L39.2839 66.858L39.905 65.9882L40.6503 64.9941L41.1472 64.2485L42.6378 62.7574L44.0042 61.8876L44.9979 61.3905L46.4885 60.7692L48.1033 60.645H48.9729L49.7182 60.8935L50.3392 61.142L50.9603 61.5148L51.4572 61.8876L51.9541 62.8817L52.2025 63.8757V64.9941L51.7056 66.6095L50.8361 68.7219L48.9729 71.0828L47.7307 72.0769L46.7369 72.9467L44.501 73.9408L42.6378 74.3136H41.2714L40.5261 74.0651L39.905 73.6923L39.2839 73.1953L38.7871 72.6982L38.4144 71.9527Z" fill="#CF5D54"/>
<path d="M5.12422 85.7456L5 86.3669L124 88.2308V74.8107L103.256 67.7278L93.691 65.2426L90.834 65.1183L87.8528 65.6154L78.5365 69.4675L67.4812 74.8107L53.9415 79.9053L39.1597 84.2544L34.4395 85H5.22173L5.12422 85.7456Z" fill="#CF5D54"/>
<path d="M38.4144 68.8462V71.9527L38.7871 72.6982L39.2839 73.1953L39.905 73.6923L40.5261 74.0651L41.2714 74.3136H42.6378L44.501 73.9408L46.7369 72.9467L47.7307 72.0769L48.9729 71.0828L50.8361 68.7219L51.7056 66.6095L52.2025 64.9941V63.8757L51.9541 62.8817L51.4572 61.8876L50.9603 61.5148L50.3392 61.142L49.7182 60.8935L48.9729 60.645H48.1033L46.4885 60.7692L44.9979 61.3905L44.0042 61.8876L42.6378 62.7574L41.1472 64.2485L40.6503 64.9941L39.905 65.9882L39.2839 66.858L38.6628 68.1006L38.4144 68.8462Z" fill="#4D1B17"/>
<path d="M10.714 62.5089L10.0929 61.9694L7.57376 70.1441L7.98121 70.7101L8.6023 71.4556L8.97495 71.8284L9.47182 71.9527H10.0929L10.5898 71.7041L10.8382 71.2071L11.5835 69.9645L11.8319 69.3432V68.7219V67.7278V66.9823L11.7077 66.1124L11.4593 64.6213L11.0866 63.3787L10.714 62.5089Z" fill="#4D1B17"/>
<path d="M80.2756 99.9112L124 95.3136V91.3373L58.4134 93.574L12.4689 94.565L13.9436 95.9349L14.9374 97.0533V98.7929V99.5385L14.5647 100.036L13.571 101.278L13.1983 101.775L12.8257 102.148L12.7015 102.769L13.3225 103.888L13.571 104.26L13.9436 104.509L14.8132 105.006L15.6827 105.379L16.9248 105.751L18.7881 106L26.738 105.503L80.2756 99.9112Z" fill="#CF5D54"/>
<path d="M10.8382 93.9467L12.2046 94.3195L12.4689 94.565L58.4134 93.574L124 91.3373V88.2308L5 86.3669L5.12422 87.3609L6.24217 89.2249L7.48434 91.0888L8.47808 92.2071L9.3476 93.2012L10.8382 93.9467Z" fill="#4D1B17"/>
<path d="M5 86.3669L5.12422 87.3609L6.24217 89.2249L7.48434 91.0888L8.47808 92.2071L9.3476 93.2012L10.8382 93.9467L12.2046 94.3195L12.4689 94.565M5 86.3669L5.12422 85.7456L5.22173 85M5 86.3669L124 88.2308M10.0929 61.9694L11.9562 55.9231L14.4405 50.2071L16.1795 46.6036L19.0365 41.8817L20.5271 39.2722L25.1232 33.8047L25.4507 33.432M10.0929 61.9694L10.714 62.5089L11.0866 63.3787L11.4593 64.6213L11.7077 66.1124L11.8319 66.9823V67.7278V68.7219V69.3432L11.5835 69.9645L10.8382 71.2071L10.5898 71.7041L10.0929 71.9527H9.47182L8.97495 71.8284L8.6023 71.4556L7.98121 70.7101L7.57376 70.1441M10.0929 61.9694L7.57376 70.1441M7.57376 70.1441L6.86326 72.4497L5.56304 82.3905M68.7234 22.0027L57.4196 22.1243L49.5939 22.497L43.0104 23.4911L38.0418 24.4852L32.8246 26.8462L28.7255 29.7041L25.4507 33.432M68.7234 22.0027L68.9718 22L73.5104 22.1243L79.6545 23.9882L85.4927 26.3491L94.1879 32.0651L107.355 41.3846L124 53.8107V58.5325V64.1243M68.7234 22.0027L78.5365 27.0947L69.7171 32.8107L58.6618 41.6331L53.5689 46.355L48.7244 50.2071L42.6378 54.929L38.7871 57.2899L36.1785 58.7811L35.4332 58.9053H15.6054L15.0616 58.284L14.5647 57.6627L14.6889 55.3018L16.1795 51.0769L18.6639 46.6036L22.2662 40.0178L25.3716 33.6805L25.4507 33.432M5.22173 85H34.4395L39.1597 84.2544L53.9415 79.9053L67.4812 74.8107L78.5365 69.4675L87.8528 65.6154L90.834 65.1183L93.691 65.2426L103.256 67.7278L124 74.8107M5.22173 85L5.56304 82.3905M124 74.8107V64.1243M124 74.8107V88.2308M124 64.1243L103.256 53.0651L97.1691 50.7041L94.4363 50.0828H92.6973L90.5856 50.3314L88.7223 51.0769L80.7724 56.0473L73.3194 62.0118L66.239 67.8521L60.4008 71.8284L54.5626 74.9349L48.2276 77.6686L42.762 79.9053L38.4144 81.2722L34.9363 82.2663L31.7067 82.3905H29.0981H5.56304M124 88.2308V91.3373M12.3288 94.568L12.4689 94.565M124 91.3373V95.3136L80.2756 99.9112L26.738 105.503L18.7881 106L16.9248 105.751L15.6827 105.379L14.8132 105.006L13.9436 104.509L13.571 104.26L13.3225 103.888L12.7015 102.769L12.8257 102.148L13.1983 101.775L13.571 101.278L14.5647 100.036L14.9374 99.5385V98.7929V97.0533L13.9436 95.9349L12.4689 94.565M124 91.3373L58.4134 93.574L12.4689 94.565M38.4144 68.8462V71.9527L38.7871 72.6982L39.2839 73.1953L39.905 73.6923L40.5261 74.0651L41.2714 74.3136H42.6378L44.501 73.9408L46.7369 72.9467L47.7307 72.0769L48.9729 71.0828L50.8361 68.7219L51.7056 66.6095L52.2025 64.9941V63.8757L51.9541 62.8817L51.4572 61.8876L50.9603 61.5148L50.3392 61.142L49.7182 60.8935L48.9729 60.645H48.1033L46.4885 60.7692L44.9979 61.3905L44.0042 61.8876L42.6378 62.7574L41.1472 64.2485L40.6503 64.9941L39.905 65.9882L39.2839 66.858L38.6628 68.1006L38.4144 68.8462Z" stroke="#4D1B17"/>
<path d="M109.838 117.172L115.648 111.472L115.461 105.975L114.343 102.511L100.96 91.4586L102.272 85.9108L100.967 76.95L95.1991 69.1412L90.0662 65.3133L85.484 62.9674L81.986 63.0862L73.9906 63.3578L70.0778 65.9921L70.1287 67.4912L81.9615 77.0951L82.0972 81.0928L80.7169 84.6417L78.2692 86.2257L73.7888 86.8782L70.7396 85.4809L64.5225 79.1882L60.9227 76.3088L58.509 78.8922L57.7471 85.9221L58.9163 90.8853L60.5342 94.3323L64.1849 98.711L68.8181 102.556L73.4003 104.902L77.432 105.765L80.9469 106.146L84.4279 105.528L87.892 104.41L88.8914 104.376L94.5749 109.686L98.7253 114.047L101.808 116.444L103.841 117.376L106.84 117.274L109.838 117.172Z" fill="#CF5D54" stroke="#4D1B17"/>
</svg>
